<svg preserveAspectRatio="none" overflow="visible" style="display: block;" width="24" height="24" viewBox="0 0 24 24" fill="none" xmlns="http://www.w3.org/2000/svg">
<g id="Icon">
<path id="Vector" d="M19.2806 18.2194C19.3503 18.2891 19.4056 18.3718 19.4433 18.4628C19.481 18.5539 19.5004 18.6515 19.5004 18.75C19.5004 18.8485 19.481 18.9461 19.4433 19.0372C19.4056 19.1282 19.3503 19.2109 19.2806 19.2806C19.2109 19.3503 19.1282 19.4056 19.0372 19.4433C18.9461 19.481 18.8485 19.5004 18.75 19.5004C18.6515 19.5004 18.5539 19.481 18.4628 19.4433C18.3718 19.4056 18.2891 19.3503 18.2194 19.2806L12 13.0603L5.78063 19.2806C5.63989 19.4214 5.44902 19.5004 5.25 19.5004C5.05098 19.5004 4.86011 19.4214 4.71938 19.2806C4.57864 19.1399 4.49958 18.949 4.49958 18.75C4.49958 18.551 4.57864 18.3601 4.71938 18.2194L10.9397 12L4.71938 5.78063C4.57864 5.63989 4.49958 5.44902 4.49958 5.25C4.49958 5.05098 4.57864 4.86011 4.71938 4.71938C4.86011 4.57864 5.05098 4.49958 5.25 4.49958C5.44902 4.49958 5.63989 4.57864 5.78063 4.71938L12 10.9397L18.2194 4.71938C18.3601 4.57864 18.551 4.49958 18.75 4.49958C18.949 4.49958 19.1399 4.57864 19.2806 4.71938C19.4214 4.86011 19.5004 5.05098 19.5004 5.25C19.5004 5.44902 19.4214 5.63989 19.2806 5.78063L13.0603 12L19.2806 18.2194Z" fill="#10141B"/>
</g>
</svg>
