<svg preserveAspectRatio="none" overflow="visible" style="display: block;" width="78.2023" height="24.0004" viewBox="0 0 78.2023 24.0004" fill="none" xmlns="http://www.w3.org/2000/svg">
<g id="logo">
<path id="logo/primary" d="M22.5139 14.6479C23.0258 14.6479 23.4283 14.7032 23.7209 14.8129C24.0134 14.9043 24.2328 15.0413 24.3791 15.224C24.5437 15.3886 24.6443 15.5899 24.6809 15.8276C24.7174 16.0469 24.7355 16.2936 24.7355 16.5678V21.6147C24.7355 22.0718 24.6721 22.4562 24.5441 22.767C24.4162 23.0777 24.2511 23.3245 24.05 23.5072C23.8489 23.69 23.6113 23.8179 23.3371 23.891C23.0811 23.9642 22.8064 24.0004 22.5139 24.0004C21.9291 24.0003 21.4083 23.827 20.9514 23.4799C20.5125 23.1508 20.2922 22.5289 20.2922 21.6147V18.433H6.00312C5.49119 18.433 5.07051 18.3787 4.7414 18.269C4.4123 18.1593 4.15667 18.0214 3.97383 17.8569C3.79098 17.674 3.66318 17.4728 3.59004 17.2533C3.53522 17.0157 3.50703 16.7871 3.50703 16.5678C3.50704 16.2936 3.5352 16.0469 3.59004 15.8276C3.66318 15.5899 3.79099 15.3886 3.97383 15.224C4.15663 15.0413 4.41245 14.9043 4.7414 14.8129C5.07052 14.7032 5.49117 14.6479 6.00312 14.6479H22.5139ZM49.2043 13.9897C49.7162 13.9897 50.1188 14.045 50.4113 14.1547C50.7038 14.2461 50.9233 14.383 51.0695 14.5658C51.2341 14.7304 51.3347 14.9317 51.3713 15.1694C51.4078 15.3887 51.426 15.6354 51.426 15.9096V21.6147C51.426 22.5289 51.1885 23.1508 50.7131 23.4799C50.2378 23.8271 49.6437 24.0003 48.9309 24.0004H32.008C31.496 24.0004 31.0935 23.9461 30.801 23.8363C30.5086 23.745 30.2799 23.6079 30.1154 23.4252C29.9692 23.2607 29.8776 23.0593 29.841 22.8217C29.8044 22.6023 29.7863 22.3548 29.7863 22.0805V16.3764C29.7863 15.6816 29.9604 15.114 30.3078 14.6752C30.6736 14.2183 31.3319 13.9897 32.2824 13.9897H49.2043ZM66.1887 12.766C66.4812 12.766 66.7559 12.8032 67.0119 12.8764C67.2861 12.9495 67.5237 13.0774 67.7248 13.2602C67.9259 13.443 68.091 13.6896 68.2189 14.0004C68.3469 14.3112 68.4103 14.6956 68.4103 15.1528V19.5961H75.7062C76.2181 19.5961 76.6389 19.6414 76.968 19.7328C77.2969 19.8425 77.5528 19.9795 77.7355 20.144C77.9183 20.3268 78.0371 20.5281 78.092 20.7475C78.1651 20.9852 78.2023 21.2418 78.2023 21.516C78.2023 21.7353 78.1651 21.955 78.092 22.1742C78.0371 22.4117 77.9182 22.6123 77.7355 22.7768C77.5527 22.9596 77.297 23.1065 76.968 23.2162C76.6389 23.3259 76.2181 23.3803 75.7062 23.3803H56.6447C56.133 23.3803 55.7121 23.3258 55.383 23.2162C55.0539 23.1065 54.7973 22.9596 54.6145 22.7768C54.4319 22.6124 54.3038 22.4116 54.2307 22.1742C54.1758 21.955 54.1487 21.7353 54.1486 21.516C54.1486 21.2418 54.1758 20.9852 54.2307 20.7475C54.3038 20.5281 54.4316 20.3268 54.6145 20.144C54.7973 19.9794 55.0539 19.8425 55.383 19.7328C55.7121 19.6415 56.1329 19.5961 56.6447 19.5961H63.967V15.1528C63.967 14.2387 64.1865 13.6167 64.6252 13.2875C65.0823 12.9402 65.6036 12.7661 66.1887 12.766ZM34.2297 20.2983H46.9836V17.6928H34.2297V20.2983ZM66.3264 0.314861C66.6187 0.31489 66.9019 0.351171 67.176 0.424236C67.4685 0.497375 67.7251 0.625178 67.9445 0.808025C68.1638 0.990773 68.3371 1.23769 68.465 1.54826C68.6113 1.8591 68.6848 2.24349 68.6848 2.7006V3.49553C68.6848 4.19035 68.8588 4.87661 69.2062 5.55314C69.5719 6.2113 70.0561 6.83334 70.6594 7.41838C71.2627 7.98517 71.9491 8.49644 72.717 8.95353C73.4849 9.39232 74.28 9.73147 75.1027 9.96916C75.7975 10.1703 76.3188 10.4903 76.6662 10.9291C77.0317 11.3679 77.1416 11.9256 76.9953 12.602C76.8307 13.3149 76.41 13.7901 75.7336 14.0278C75.5325 14.1009 75.3221 14.1472 75.1027 14.1654C74.8833 14.1837 74.6639 14.1646 74.4445 14.1098C73.6217 13.9269 72.8258 13.6532 72.0578 13.2875C71.2901 12.9219 70.55 12.5101 69.8371 12.0531C69.1423 11.5778 68.4932 11.0655 67.8898 10.517C67.2864 9.95018 66.7461 9.37458 66.2707 8.78947C65.7771 9.35621 65.2285 9.91387 64.6252 10.4623C64.0218 10.9925 63.3908 11.4867 62.7326 11.9438C62.0745 12.4008 61.398 12.8035 60.7033 13.1508C60.0087 13.4798 59.323 13.7356 58.6467 13.9184C58.3907 13.9915 58.1069 14.0459 57.7961 14.0824C57.5036 14.1007 57.2107 14.0826 56.9182 14.0278C56.6076 13.9546 56.3153 13.8176 56.0412 13.6166C55.7669 13.4155 55.5657 13.1045 55.4377 12.684C55.2366 12.0259 55.2911 11.4682 55.6018 11.0112C55.9126 10.5357 56.4067 10.1695 57.0832 9.91349C57.8693 9.62099 58.6737 9.24646 59.4963 8.78947C60.3191 8.33237 61.0597 7.8292 61.718 7.28068C62.3761 6.71398 62.9156 6.11092 63.3361 5.47111C63.7567 4.81286 63.967 4.13566 63.967 3.44084V2.7006C63.967 2.24349 64.0314 1.8591 64.1594 1.54826C64.3056 1.23759 64.4889 0.990801 64.7082 0.808025C64.9275 0.6253 65.1743 0.497345 65.4484 0.424236C65.741 0.351106 66.0338 0.314861 66.3264 0.314861ZM22.7883 0.166424C23.3551 0.166424 23.8129 0.340499 24.1603 0.687908C24.5258 1.01711 24.7082 1.63919 24.7082 2.55314V11.0824C24.7082 12.033 24.5349 12.6732 24.1877 13.0024C23.8586 13.3315 23.4007 13.4965 22.8156 13.4965C22.2307 13.4964 21.7555 13.3314 21.3898 13.0024C21.0424 12.6732 20.8684 12.0332 20.8684 11.0824V8.39494H18.592V11.0551C18.592 12.0057 18.4187 12.6458 18.0715 12.975C17.7424 13.3041 17.2845 13.4692 16.6994 13.4692C16.1145 13.4691 15.6393 13.3041 15.2736 12.975C14.9262 12.6459 14.7521 12.0059 14.7521 11.0551V2.55314C14.7521 1.63893 14.9262 1.01704 15.2736 0.687908C15.621 0.340543 16.0871 0.166468 16.6721 0.166424C17.2388 0.166424 17.6958 0.340602 18.0432 0.687908C18.4089 1.01703 18.592 1.63891 18.592 2.55314V4.66447H20.8684V2.55314C20.8684 1.63894 21.0425 1.01704 21.3898 0.687908C21.7372 0.340548 22.2033 0.166473 22.7883 0.166424ZM6.20332 0.0912284C6.28214 -0.030371 6.46041 -0.0303422 6.53926 0.0912284L7.76582 1.98771C7.81722 2.06714 7.91777 2.09979 8.00605 2.06584L10.1135 1.25236C10.2487 1.20042 10.3928 1.30585 10.385 1.4506L10.2629 3.70549C10.2579 3.79994 10.3199 3.88523 10.4113 3.90959L12.5939 4.49064C12.734 4.52804 12.7889 4.69742 12.6975 4.80998L11.2736 6.56291C11.214 6.63638 11.214 6.74141 11.2736 6.81486L12.6975 8.56779C12.7889 8.68036 12.7341 8.84976 12.5939 8.88713L10.4113 9.46818C10.3199 9.49257 10.2578 9.57778 10.2629 9.67228L10.385 11.9272C10.3928 12.072 10.2488 12.1766 10.1135 12.1244L8.00605 11.3119C7.91775 11.2779 7.81723 11.3106 7.76582 11.3901L6.53926 13.2865C6.4604 13.4079 6.28215 13.408 6.20332 13.2865L4.97676 11.3901C4.92533 11.3106 4.82484 11.2779 4.73652 11.3119L2.6291 12.1244C2.49379 12.1765 2.34979 12.072 2.35761 11.9272L2.47968 9.67228C2.48479 9.57775 2.42273 9.49254 2.33125 9.46818L0.14863 8.88713C0.00857786 8.84971 -0.0463197 8.68033 0.0451145 8.56779L1.46894 6.81486C1.52863 6.7414 1.5286 6.63638 1.46894 6.56291L0.0451145 4.80998C-0.0463092 4.69745 0.00861331 4.52808 0.14863 4.49064L2.33125 3.90959C2.42268 3.88525 2.48471 3.79995 2.47968 3.70549L2.35761 1.4506C2.3498 1.30588 2.49386 1.2005 2.6291 1.25236L4.73652 2.06584C4.82482 2.09984 4.92534 2.06716 4.97676 1.98771L6.20332 0.0912284ZM49.6437 0.166424C50.2105 0.166457 50.6493 0.340532 50.9602 0.687908C51.2709 1.01707 51.426 1.63903 51.426 2.55314V10.6166C51.4259 11.5673 51.28 12.2075 50.9875 12.5365C50.695 12.8655 50.2561 13.0297 49.6711 13.0297C49.0862 13.0297 48.6291 12.8654 48.3 12.5365C47.9892 12.2075 47.8332 11.5673 47.8332 10.6166V8.53166H46.1877V10.5893C46.1877 11.5399 46.0327 12.1801 45.7219 12.5092C45.4294 12.8382 44.9903 13.0023 44.4055 13.0024C43.8204 13.0024 43.3625 12.8383 43.0334 12.5092C42.7226 12.1801 42.5676 11.5399 42.5676 10.5893V2.55314C42.5676 1.63912 42.7227 1.01709 43.0334 0.687908C43.3442 0.340585 43.7922 0.16651 44.3771 0.166424C44.944 0.166424 45.3837 0.340499 45.6945 0.687908C46.0234 1.01712 46.1877 1.6392 46.1877 2.55314V4.63713H47.8332V2.55314C47.8332 1.63891 47.9892 1.01703 48.3 0.687908C48.6108 0.340542 49.0587 0.166424 49.6437 0.166424ZM32.4465 0.440838C32.8853 0.440838 33.2425 0.496168 33.5168 0.605877C33.7909 0.6973 34.0015 0.834259 34.1477 1.01701C34.2938 1.18152 34.3845 1.38296 34.4211 1.62053C34.4759 1.8399 34.5041 2.08656 34.5041 2.36076C34.5041 2.58018 34.4759 2.79955 34.4211 3.01896C34.3845 3.23831 34.2939 3.43967 34.1477 3.62248C34.0014 3.78697 33.7909 3.92393 33.5168 4.03361C33.2425 4.12503 32.8853 4.17131 32.4465 4.17131H31.843V8.80607H32.8312C33.2699 8.80611 33.6264 8.86144 33.9006 8.97111C34.1747 9.06254 34.3852 9.19945 34.5314 9.38224C34.6776 9.54677 34.7693 9.73907 34.8059 9.95842C34.8606 10.1777 34.8879 10.3973 34.8879 10.6166C34.8879 10.8907 34.8607 11.1466 34.8059 11.3842C34.7693 11.6036 34.6777 11.8049 34.5314 11.9877C34.3852 12.1522 34.1748 12.2892 33.9006 12.3988C33.6264 12.4902 33.2699 12.5365 32.8312 12.5365H30.5266C30.0149 12.5365 29.613 12.4902 29.3205 12.3988C29.0281 12.2892 28.8086 12.1522 28.6623 11.9877C28.516 11.8049 28.4245 11.6036 28.3879 11.3842C28.3513 11.1466 28.3332 10.8908 28.3332 10.6166V2.68986C28.3332 2.34247 28.3513 2.0315 28.3879 1.75724C28.4245 1.46476 28.5161 1.22717 28.6623 1.04435C28.8086 0.843301 29.028 0.697277 29.3205 0.605877C29.613 0.496242 30.0149 0.440863 30.5266 0.440838H32.4465ZM39.1389 0.440838C40.0348 0.440838 40.6295 0.63303 40.9221 1.01701C41.2145 1.38266 41.3605 1.83063 41.3605 2.36076C41.3605 2.58013 41.3243 2.79959 41.2512 3.01896C41.1963 3.23833 41.0866 3.43966 40.9221 3.62248C40.7576 3.78696 40.5289 3.92393 40.2365 4.03361C39.944 4.12503 39.5777 4.17131 39.1389 4.17131H38.7551V8.80607H39.6877C40.1265 8.80608 40.4828 8.86142 40.757 8.97111C41.0496 9.06253 41.269 9.19941 41.4152 9.38224C41.5798 9.54681 41.6895 9.739 41.7443 9.95842C41.7991 10.1777 41.8273 10.3973 41.8273 10.6166C41.8273 10.8908 41.7992 11.1466 41.7443 11.3842C41.6895 11.6036 41.5798 11.8049 41.4152 11.9877C41.269 12.1522 41.0495 12.2892 40.757 12.3988C40.4828 12.4902 40.1264 12.5365 39.6877 12.5365H37.4387C36.9267 12.5365 36.5242 12.4903 36.2316 12.3988C35.9392 12.2892 35.7106 12.1522 35.5461 11.9877C35.3998 11.8049 35.3082 11.6036 35.2717 11.3842C35.2351 11.1466 35.217 10.8907 35.217 10.6166V2.68986C35.217 2.34247 35.2351 2.0315 35.2717 1.75724C35.3083 1.46476 35.3998 1.22717 35.5461 1.04435C35.7106 0.843272 35.9392 0.697305 36.2316 0.605877C36.5242 0.496168 36.9267 0.440838 37.4387 0.440838H39.1389Z" fill="#C5BAE6"/>
</g>
</svg>
