<svg preserveAspectRatio="none" overflow="visible" style="display: block;" width="100.681" height="157.432" viewBox="0 0 100.681 157.432" fill="none" xmlns="http://www.w3.org/2000/svg">
<g id="stamp">
<ellipse id="Ellipse 4" cx="50.3368" cy="124.56" rx="50.3344" ry="32.8712" fill="#322D2D"/>
<path id="Ellipse 3" d="M100.681 121.104C100.681 139.258 78.1452 153.975 50.3463 153.975C22.5474 153.975 0.0119046 139.258 0.0119046 121.104C0.0119046 102.949 -1.72489 109.858 50.3463 88.2324C101.221 108.128 100.681 102.949 100.681 121.104Z" fill="url(#paint0_linear_0_35)"/>
<ellipse id="Ellipse 1" cx="50.3344" cy="110.717" rx="50.3344" ry="32.8712" fill="#955D3E"/>
<g id="Ellipse 2" opacity="0.7" filter="url(#filter0_f_0_35)">
<path d="M96.8889 111.353C96.8889 105.899 95.1588 137.905 50.1771 137.905C3.46534 140.269 3.46534 105.899 3.46534 111.353C3.46534 127.451 22.4679 140.5 50.1771 140.5C77.8863 140.5 96.8889 127.451 96.8889 111.353Z" fill="white"/>
</g>
<path id="Ellipse 5" d="M91.8705 108.124C91.8705 122.934 73.282 134.94 50.3518 134.94C27.4217 134.94 8.83311 122.934 8.83311 108.124C8.83311 93.3136 7.4005 98.9498 50.3518 81.3077C92.316 97.5384 91.8705 93.3136 91.8705 108.124Z" fill="url(#paint1_linear_0_35)"/>
<ellipse id="Ellipse 6" cx="50.3476" cy="102.93" rx="41.5216" ry="26.816" fill="url(#paint2_linear_0_35)"/>
<path id="Ellipse 7" d="M74.5724 100.341C74.5724 108.94 63.7291 115.912 50.3531 115.912C36.9772 115.912 26.1339 108.94 26.1339 100.341C26.1339 91.7417 25.2982 95.0143 50.3531 84.7705C74.8323 94.1947 74.5724 91.7417 74.5724 100.341Z" fill="url(#paint3_linear_0_35)"/>
<ellipse id="Ellipse 8" cx="50.3544" cy="96.8843" rx="24.2209" ry="15.5706" fill="url(#paint4_linear_0_35)"/>
<path id="Rectangle 12" d="M31.1415 55.355H69.203L62.4063 79.2464L69.203 95.9704C57.2283 101.984 43.1162 101.984 31.1415 95.9704L37.9382 79.2464L31.1415 55.355Z" fill="url(#paint5_linear_0_35)"/>
<g id="Vector 7" opacity="0.7" filter="url(#filter1_f_0_35)">
<path d="M60.5444 77.556C62.9703 73.7811 61.7964 67.4178 60.9063 64.7081C58.8265 57.3876 46.3471 89.1354 46.4862 91.5516C46.6253 93.9677 57.5121 82.2747 60.5444 77.556Z" fill="#461A0E"/>
</g>
<g id="Ellipse 9" filter="url(#filter2_i_0_35)">
<circle cx="50.1791" cy="34.6013" r="34.6013" fill="url(#paint6_linear_0_35)"/>
</g>
<g id="Vector 5" opacity="0.8" filter="url(#filter3_f_0_35)">
<path d="M69.4752 54.3257C55.9776 67.5392 40.2796 62.6842 29.8589 54.214C48.8045 48.5951 64.2813 34.8613 72.1133 16.7183L72.5182 15.7805C80.5226 23.8664 82.9728 41.1123 69.4752 54.3257Z" fill="url(#paint7_linear_0_35)"/>
</g>
<g id="Vector 2" opacity="0.8" filter="url(#filter4_f_0_35)">
<path d="M39.1416 84.7644C41.9097 79.2282 39.7182 70.9239 38.2765 67.4638C44.3318 71.7889 45.1968 86.4945 40.0066 92.5497C34.8164 98.6049 35.6814 91.6847 39.1416 84.7644Z" fill="white"/>
</g>
<g id="Vector 6" opacity="0.5" filter="url(#filter5_f_0_35)">
<path d="M35.034 103.917C43.9112 109.614 47.3887 109.14 50.9719 109.787C44.9038 111.921 32.5653 108.212 29.1765 101.744C25.7876 95.2754 28.7761 99.9004 35.034 103.917Z" fill="white"/>
</g>
<g id="Vector 3" opacity="0.5" filter="url(#filter6_f_0_35)">
<path d="M50.1757 15.5675L64.8813 7.78216C76.1267 14.7024 79.2985 29.1196 78.7218 33.7331L57.096 32.8681C57.788 28.0239 52.7708 19.3159 50.1757 15.5675Z" fill="white"/>
</g>
<g id="Vector 4" opacity="0.5" filter="url(#filter7_f_0_35)">
<path d="M29.228 30.4732L20.598 26.7284C20.4759 36.8871 23.58 48.56 25.9078 52.5518L34.2774 47.3172C31.7981 43.1437 29.8781 34.3489 29.228 30.4732Z" fill="white"/>
</g>
</g>
<defs>
<filter id="filter0_f_0_35" x="0.00521301" y="107.267" width="100.344" height="36.6932" filterUnits="userSpaceOnUse" color-interpolation-filters="sRGB">
<feFlood flood-opacity="0" result="BackgroundImageFix"/>
<feBlend mode="normal" in="SourceGraphic" in2="BackgroundImageFix" result="shape"/>
<feGaussianBlur stdDeviation="1.73007" result="effect1_foregroundBlur_0_35"/>
</filter>
<filter id="filter1_f_0_35" x="41.2948" y="58.4245" width="25.8821" height="38.6423" filterUnits="userSpaceOnUse" color-interpolation-filters="sRGB">
<feFlood flood-opacity="0" result="BackgroundImageFix"/>
<feBlend mode="normal" in="SourceGraphic" in2="BackgroundImageFix" result="shape"/>
<feGaussianBlur stdDeviation="2.5951" result="effect1_foregroundBlur_0_35"/>
</filter>
<filter id="filter2_i_0_35" x="15.5778" y="-6.92026" width="69.2026" height="76.1229" filterUnits="userSpaceOnUse" color-interpolation-filters="sRGB">
<feFlood flood-opacity="0" result="BackgroundImageFix"/>
<feBlend mode="normal" in="SourceGraphic" in2="BackgroundImageFix" result="shape"/>
<feColorMatrix in="SourceAlpha" type="matrix" values="0 0 0 0 0 0 0 0 0 0 0 0 0 0 0 0 0 0 127 0" result="hardAlpha"/>
<feOffset dy="-6.92026"/>
<feGaussianBlur stdDeviation="4.32516"/>
<feComposite in2="hardAlpha" operator="arithmetic" k2="-1" k3="1"/>
<feColorMatrix type="matrix" values="0 0 0 0 0.463782 0 0 0 0 0.230204 0 0 0 0 0.0116949 0 0 0 0.25 0"/>
<feBlend mode="normal" in2="shape" result="effect1_innerShadow_0_35"/>
</filter>
<filter id="filter3_f_0_35" x="19.4785" y="5.40007" width="69.9633" height="67.4857" filterUnits="userSpaceOnUse" color-interpolation-filters="sRGB">
<feFlood flood-opacity="0" result="BackgroundImageFix"/>
<feBlend mode="normal" in="SourceGraphic" in2="BackgroundImageFix" result="shape"/>
<feGaussianBlur stdDeviation="5.1902" result="effect1_foregroundBlur_0_35"/>
</filter>
<filter id="filter4_f_0_35" x="31.14" y="62.2736" width="17.4648" height="37.7887" filterUnits="userSpaceOnUse" color-interpolation-filters="sRGB">
<feFlood flood-opacity="0" result="BackgroundImageFix"/>
<feBlend mode="normal" in="SourceGraphic" in2="BackgroundImageFix" result="shape"/>
<feGaussianBlur stdDeviation="2.5951" result="effect1_foregroundBlur_0_35"/>
</filter>
<filter id="filter5_f_0_35" x="26.031" y="96.795" width="26.671" height="15.3268" filterUnits="userSpaceOnUse" color-interpolation-filters="sRGB">
<feFlood flood-opacity="0" result="BackgroundImageFix"/>
<feBlend mode="normal" in="SourceGraphic" in2="BackgroundImageFix" result="shape"/>
<feGaussianBlur stdDeviation="0.865033" result="effect1_foregroundBlur_0_35"/>
</filter>
<filter id="filter6_f_0_35" x="43.2554" y="0.861902" width="42.4513" height="39.7915" filterUnits="userSpaceOnUse" color-interpolation-filters="sRGB">
<feFlood flood-opacity="0" result="BackgroundImageFix"/>
<feBlend mode="normal" in="SourceGraphic" in2="BackgroundImageFix" result="shape"/>
<feGaussianBlur stdDeviation="3.46013" result="effect1_foregroundBlur_0_35"/>
</filter>
<filter id="filter7_f_0_35" x="13.6743" y="19.8081" width="27.5234" height="39.6639" filterUnits="userSpaceOnUse" color-interpolation-filters="sRGB">
<feFlood flood-opacity="0" result="BackgroundImageFix"/>
<feBlend mode="normal" in="SourceGraphic" in2="BackgroundImageFix" result="shape"/>
<feGaussianBlur stdDeviation="3.46013" result="effect1_foregroundBlur_0_35"/>
</filter>
<linearGradient id="paint0_linear_0_35" x1="0.00517591" y1="121.104" x2="100.674" y2="121.104" gradientUnits="userSpaceOnUse">
<stop stop-color="#C79159"/>
<stop offset="0.600962" stop-color="#663D29"/>
<stop offset="1" stop-color="#7F5E4D"/>
</linearGradient>
<linearGradient id="paint1_linear_0_35" x1="8.82756" y1="108.124" x2="91.865" y2="108.124" gradientUnits="userSpaceOnUse">
<stop stop-color="#99501D"/>
<stop offset="0.600962" stop-color="#45190E"/>
<stop offset="1" stop-color="#763F23"/>
</linearGradient>
<linearGradient id="paint2_linear_0_35" x1="50.3476" y1="76.1136" x2="50.3476" y2="129.746" gradientUnits="userSpaceOnUse">
<stop stop-color="#B38B72"/>
<stop offset="1" stop-color="#884729"/>
</linearGradient>
<linearGradient id="paint3_linear_0_35" x1="26.1307" y1="100.341" x2="74.5692" y2="100.341" gradientUnits="userSpaceOnUse">
<stop stop-color="#D7994E"/>
<stop offset="0.634615" stop-color="#5A2610"/>
<stop offset="1" stop-color="#A86227"/>
</linearGradient>
<linearGradient id="paint4_linear_0_35" x1="26.1334" y1="96.8843" x2="74.5719" y2="96.8843" gradientUnits="userSpaceOnUse">
<stop stop-color="#D7994E"/>
<stop offset="1" stop-color="#A86227"/>
</linearGradient>
<linearGradient id="paint5_linear_0_35" x1="31.1415" y1="75.6627" x2="69.2003" y2="75.6627" gradientUnits="userSpaceOnUse">
<stop stop-color="#D7994E"/>
<stop offset="1" stop-color="#A86227"/>
</linearGradient>
<linearGradient id="paint6_linear_0_35" x1="15.5778" y1="28.0106" x2="84.7756" y2="28.0106" gradientUnits="userSpaceOnUse">
<stop stop-color="#D7994E"/>
<stop offset="1" stop-color="#A86227"/>
</linearGradient>
<linearGradient id="paint7_linear_0_35" x1="46.0977" y1="38.1566" x2="66.4996" y2="50.0722" gradientUnits="userSpaceOnUse">
<stop stop-color="#BE7652"/>
<stop offset="1" stop-color="#632D12"/>
</linearGradient>
</defs>
</svg>
