<svg preserveAspectRatio="none" overflow="visible" style="display: block;" width="36" height="36" viewBox="0 0 36 36" fill="none" xmlns="http://www.w3.org/2000/svg">
<g id="emotion">
<g clip-path="url(#clip0_0_59)">
<path d="M0 12C0 5.37258 5.37258 0 12 0H24C30.6274 0 36 5.37258 36 12V24C36 30.6274 30.6274 36 24 36H12C5.37258 36 0 30.6274 0 24V12Z" fill="#FC6900"/>
<g id="Ellipse 11" filter="url(#filter0_f_0_59)">
<ellipse cx="18.5" cy="18.5" rx="14.5" ry="6.5" fill="#FC3F00"/>
</g>
<g id="eye">
<g id="eye_2" filter="url(#filter1_ii_0_59)">
<path d="M3.75487 11.2571C3.76281 11.1279 3.8751 11.0303 4.00412 11.0405L16.2677 12.0066C16.3789 12.0153 16.4658 12.1063 16.4696 12.2178L16.6199 16.7192C16.7444 20.45 13.7538 23.5422 10.0208 23.5422C6.21502 23.5422 3.19718 20.3332 3.43059 16.5346L3.75487 11.2571Z" fill="#EEF0F4"/>
</g>
<path id="eye_3" d="M5.49966 11.4985L14.5399 12.022L14.7324 16.9863C14.8373 19.6917 12.6724 21.9422 9.96498 21.9422C7.22673 21.9422 5.05036 19.6424 5.2012 16.9083L5.49966 11.4985Z" fill="url(#paint0_linear_0_59)"/>
</g>
<line id="eye_4" x1="2.5617" y1="10.5705" x2="16.5705" y2="12.4383" stroke="#1B202A" stroke-linecap="round"/>
<g id="eye_5">
<g id="eye_6" filter="url(#filter2_ii_0_59)">
<path d="M32.2451 11.2571C32.2372 11.1279 32.1249 11.0303 31.9959 11.0405L19.7323 12.0066C19.6211 12.0153 19.5342 12.1063 19.5304 12.2178L19.3801 16.7192C19.2556 20.45 22.2462 23.5422 25.9792 23.5422C29.785 23.5422 32.8028 20.3332 32.5694 16.5346L32.2451 11.2571Z" fill="#EEF0F4"/>
</g>
<path id="eye_7" d="M30.5003 11.4985L21.4601 12.022L21.2676 16.9863C21.1627 19.6917 23.3276 21.9422 26.035 21.9422C28.7733 21.9422 30.9496 19.6424 30.7988 16.9083L30.5003 11.4985Z" fill="url(#paint1_linear_0_59)"/>
</g>
<line id="eye_8" x1="0.5" y1="-0.5" x2="14.6327" y2="-0.5" transform="matrix(-0.991228 0.132164 0.132164 0.991228 34 11)" stroke="#1B202A" stroke-linecap="round"/>
<line id="eye_9" x1="9.67082" y1="6.77639" x2="16.7764" y2="10.3292" stroke="#606C80" stroke-linecap="round"/>
<path id="eye_10" d="M27.6328 6.4821L20.9376 10.1492C20.3135 10.5662 19.1428 10.9125 19.4529 8.96177" stroke="#606C80" stroke-linecap="round"/>
<path id="Vector 12" d="M19 23C16.2 22.2 14.1667 24.3333 13.5 25.5C10.5 30.5033 16.5 28.4967 18 27.4967C19.5 26.4967 21 28.9967 24 28.4967C27 27.9967 22.5 24 19 23Z" fill="#D32C2C"/>
</g>
</g>
<defs>
<filter id="filter0_f_0_59" x="0" y="8" width="37" height="21" filterUnits="userSpaceOnUse" color-interpolation-filters="sRGB">
<feFlood flood-opacity="0" result="BackgroundImageFix"/>
<feBlend mode="normal" in="SourceGraphic" in2="BackgroundImageFix" result="shape"/>
<feGaussianBlur stdDeviation="2" result="effect1_foregroundBlur_0_59"/>
</filter>
<filter id="filter1_ii_0_59" x="3.41791" y="11.0397" width="13.2057" height="16.5025" filterUnits="userSpaceOnUse" color-interpolation-filters="sRGB">
<feFlood flood-opacity="0" result="BackgroundImageFix"/>
<feBlend mode="normal" in="SourceGraphic" in2="BackgroundImageFix" result="shape"/>
<feColorMatrix in="SourceAlpha" type="matrix" values="0 0 0 0 0 0 0 0 0 0 0 0 0 0 0 0 0 0 127 0" result="hardAlpha"/>
<feOffset dy="4"/>
<feGaussianBlur stdDeviation="2"/>
<feComposite in2="hardAlpha" operator="arithmetic" k2="-1" k3="1"/>
<feColorMatrix type="matrix" values="0 0 0 0 0.768627 0 0 0 0 0.792157 0 0 0 0 0.831373 0 0 0 1 0"/>
<feBlend mode="normal" in2="shape" result="effect1_innerShadow_0_59"/>
<feColorMatrix in="SourceAlpha" type="matrix" values="0 0 0 0 0 0 0 0 0 0 0 0 0 0 0 0 0 0 127 0" result="hardAlpha"/>
<feOffset/>
<feGaussianBlur stdDeviation="2"/>
<feComposite in2="hardAlpha" operator="arithmetic" k2="-1" k3="1"/>
<feColorMatrix type="matrix" values="0 0 0 0 0.768627 0 0 0 0 0.792157 0 0 0 0 0.831373 0 0 0 1 0"/>
<feBlend mode="normal" in2="effect1_innerShadow_0_59" result="effect2_innerShadow_0_59"/>
</filter>
<filter id="filter2_ii_0_59" x="19.3764" y="11.0397" width="13.2057" height="16.5025" filterUnits="userSpaceOnUse" color-interpolation-filters="sRGB">
<feFlood flood-opacity="0" result="BackgroundImageFix"/>
<feBlend mode="normal" in="SourceGraphic" in2="BackgroundImageFix" result="shape"/>
<feColorMatrix in="SourceAlpha" type="matrix" values="0 0 0 0 0 0 0 0 0 0 0 0 0 0 0 0 0 0 127 0" result="hardAlpha"/>
<feOffset dy="4"/>
<feGaussianBlur stdDeviation="2"/>
<feComposite in2="hardAlpha" operator="arithmetic" k2="-1" k3="1"/>
<feColorMatrix type="matrix" values="0 0 0 0 0.768627 0 0 0 0 0.792157 0 0 0 0 0.831373 0 0 0 1 0"/>
<feBlend mode="normal" in2="shape" result="effect1_innerShadow_0_59"/>
<feColorMatrix in="SourceAlpha" type="matrix" values="0 0 0 0 0 0 0 0 0 0 0 0 0 0 0 0 0 0 127 0" result="hardAlpha"/>
<feOffset/>
<feGaussianBlur stdDeviation="2"/>
<feComposite in2="hardAlpha" operator="arithmetic" k2="-1" k3="1"/>
<feColorMatrix type="matrix" values="0 0 0 0 0.768627 0 0 0 0 0.792157 0 0 0 0 0.831373 0 0 0 1 0"/>
<feBlend mode="normal" in2="effect1_innerShadow_0_59" result="effect2_innerShadow_0_59"/>
</filter>
<linearGradient id="paint0_linear_0_59" x1="9.92404" y1="12.022" x2="9.92404" y2="21.9422" gradientUnits="userSpaceOnUse">
<stop stop-color="#454E5F"/>
<stop offset="1" stop-color="#1B202A"/>
</linearGradient>
<linearGradient id="paint1_linear_0_59" x1="26.076" y1="12.022" x2="26.076" y2="21.9422" gradientUnits="userSpaceOnUse">
<stop stop-color="#454E5F"/>
<stop offset="1" stop-color="#1B202A"/>
</linearGradient>
<clipPath id="clip0_0_59">
<path d="M0 12C0 5.37258 5.37258 0 12 0H24C30.6274 0 36 5.37258 36 12V24C36 30.6274 30.6274 36 24 36H12C5.37258 36 0 30.6274 0 24V12Z" fill="white"/>
</clipPath>
</defs>
</svg>
