<svg preserveAspectRatio="none" overflow="visible" style="display: block;" width="36" height="36" viewBox="0 0 36 36" fill="none" xmlns="http://www.w3.org/2000/svg">
<g id="emotion">
<g clip-path="url(#clip0_0_114)">
<path d="M0 12C0 5.37258 5.37258 0 12 0H24C30.6274 0 36 5.37258 36 12V24C36 30.6274 30.6274 36 24 36H12C5.37258 36 0 30.6274 0 24V12Z" fill="#FFC4E3"/>
<g id="Ellipse 11" opacity="0.8" filter="url(#filter0_f_0_114)">
<ellipse cx="4.9415" cy="25.1216" rx="8.62036" ry="10.8904" transform="rotate(-32.815 4.9415 25.1216)" fill="#FFA0A0"/>
</g>
<g id="Ellipse 22" opacity="0.8" filter="url(#filter1_f_0_114)">
<ellipse cx="8.62036" cy="10.8904" rx="8.62036" ry="10.8904" transform="matrix(-0.840425 -0.541928 -0.541928 0.840425 44.0879 20.6406)" fill="#FFA0A0"/>
</g>
<path id="Ellipse 20" d="M16 18C16 15.7909 13.0899 14 9.5 14C5.91015 14 3 15.7909 3 18" stroke="#1B202A" stroke-width="2" stroke-linecap="round"/>
<path id="Ellipse 21" d="M33 18C33 15.7909 30.0899 14 26.5 14C22.9101 14 20 15.7909 20 18" stroke="#1B202A" stroke-width="2" stroke-linecap="round"/>
<line id="eye" x1="0.5" y1="-0.5" x2="1.91347" y2="-0.5" transform="matrix(-0.0898739 0.995953 -0.997741 -0.0671736 3.2168 21)" stroke="#F76666" stroke-linecap="round"/>
<line id="eye_2" x1="0.5" y1="-0.5" x2="1.91347" y2="-0.5" transform="matrix(-0.0898739 0.995953 -0.997741 -0.0671736 30.2169 21)" stroke="#F76666" stroke-linecap="round"/>
<line id="eye_3" x1="0.5" y1="-0.5" x2="1.91347" y2="-0.5" transform="matrix(-0.0898739 0.995953 -0.997741 -0.0671736 4.91797 21.0547)" stroke="#F76666" stroke-linecap="round"/>
<line id="eye_4" x1="0.5" y1="-0.5" x2="1.91347" y2="-0.5" transform="matrix(-0.0898739 0.995953 -0.997741 -0.0671736 31.9181 21.0547)" stroke="#F76666" stroke-linecap="round"/>
<path id="Rectangle 13" d="M12 20.5455C12 20.2442 12.2442 20 12.5455 20H23.4545C23.7558 20 24 20.2442 24 20.5455C24 23.5579 21.5579 26 18.5455 26H17.4545C14.4421 26 12 23.5579 12 20.5455Z" fill="#EF7373"/>
</g>
</g>
<defs>
<filter id="filter0_f_0_114" x="-12.4032" y="6.84353" width="34.6894" height="36.5561" filterUnits="userSpaceOnUse" color-interpolation-filters="sRGB">
<feFlood flood-opacity="0" result="BackgroundImageFix"/>
<feBlend mode="normal" in="SourceGraphic" in2="BackgroundImageFix" result="shape"/>
<feGaussianBlur stdDeviation="4" result="effect1_foregroundBlur_0_114"/>
</filter>
<filter id="filter1_f_0_114" x="13.5966" y="6.84353" width="34.6894" height="36.5561" filterUnits="userSpaceOnUse" color-interpolation-filters="sRGB">
<feFlood flood-opacity="0" result="BackgroundImageFix"/>
<feBlend mode="normal" in="SourceGraphic" in2="BackgroundImageFix" result="shape"/>
<feGaussianBlur stdDeviation="4" result="effect1_foregroundBlur_0_114"/>
</filter>
<clipPath id="clip0_0_114">
<path d="M0 12C0 5.37258 5.37258 0 12 0H24C30.6274 0 36 5.37258 36 12V24C36 30.6274 30.6274 36 24 36H12C5.37258 36 0 30.6274 0 24V12Z" fill="white"/>
</clipPath>
</defs>
</svg>
